<?xml version="1.0" encoding="UTF-8"?>
<svg width="30px" height="30px" viewBox="0 0 30 30" version="1.1" xmlns="http://www.w3.org/2000/svg" xmlns:xlink="http://www.w3.org/1999/xlink">
    <!-- Generator: Sketch 51 (57462) - http://www.bohemiancoding.com/sketch -->
    <title>Facebook</title>
    <desc>Created with Sketch.</desc>
    <defs></defs>
    <g id="Homepage" stroke="none" stroke-width="1" fill="none" fill-rule="evenodd" opacity="0.5">
        <g id="Homepage-Desktop" transform="translate(-1124.000000, -1405.000000)" fill="#4D4F56">
            <g id="Footer" transform="translate(0.000000, 1370.000000)">
                <g id="Social-Icons" transform="translate(1124.000000, 35.000000)">
                    <path d="M15,30 C6.71572875,30 0,23.2842712 0,15 C0,6.71572875 6.71572875,0 15,0 C23.2842712,0 30,6.71572875 30,15 C30,23.2842712 23.2842712,30 15,30 Z M16.0670729,23.1598365 L16.0670729,14.9990445 L18.2828783,14.9990445 L18.5765203,12.1867904 L16.0670729,12.1867904 L16.0708375,10.7792302 C16.0708375,10.045751 16.1393853,9.65273611 17.175603,9.65273611 L18.5608343,9.65273611 L18.5608343,6.84016353 L16.3447152,6.84016353 C13.6827997,6.84016353 12.7458745,8.20440933 12.7458745,10.4986418 L12.7458745,12.1871089 L11.0866087,12.1871089 L11.0866087,14.999363 L12.7458745,14.999363 L12.7458745,23.1598365 L16.0670729,23.1598365 Z" id="Facebook"></path>
                </g>
            </g>
        </g>
    </g>
</svg>