<?xml version="1.0" encoding="UTF-8"?>
<svg width="43px" height="54px" viewBox="0 0 43 54" version="1.1" xmlns="http://www.w3.org/2000/svg" xmlns:xlink="http://www.w3.org/1999/xlink">
    <!-- Generator: Sketch 51 (57462) - http://www.bohemiancoding.com/sketch -->
    <title>Logo</title>
    <desc>Created with Sketch.</desc>
    <defs></defs>
    <g id="Homepage" stroke="none" stroke-width="1" fill="none" fill-rule="evenodd">
        <g id="Homepage-Tablet" transform="translate(-40.000000, -21.000000)" fill="#FFFFFF">
            <g id="Header" transform="translate(40.000000, 21.000000)">
                <g id="Logo" transform="translate(0.000000, 0.000000)">
                    <path d="M21.5164429,0.0976741708 C28.3912014,0.09777165 35.2658628,0.09777165 42.1406212,0.0978691292 C42.9564564,0.0978691292 42.9566506,0.0983565253 42.9567476,0.89359194 L42.9567476,15.5625563 C42.9567476,16.2329208 42.9519914,16.2387696 42.2723391,16.2393544 C41.0914406,16.2403292 39.910154,16.220151 38.7300321,16.2485175 C38.2552849,16.2599225 38.1240524,16.0905037 38.1260907,15.6305967 C38.141233,12.2030327 38.1346325,8.77537114 38.133953,5.34770959 C38.1337589,4.6109617 38.0629982,4.53931448 37.3335512,4.53931448 C26.7545806,4.53892457 16.175707,4.53882709 5.59663928,4.53931448 C4.86544515,4.53931448 4.8155535,4.58873644 4.8155535,5.30608597 C4.81516524,16.0763692 4.81516524,26.8466524 4.8155535,37.6169356 C4.8155535,38.3315557 4.87185147,38.3890685 5.59324199,38.3891659 C16.1883255,38.3900433 26.7835061,38.3901407 37.3785896,38.3897508 C38.0451381,38.3897508 38.1330795,38.3022145 38.1333707,37.6315575 C38.1348266,34.4151334 38.1336619,31.1986118 38.1344384,27.9821877 C38.1346325,27.3029526 38.144242,27.2945694 38.8068108,27.2943744 C39.9877093,27.294082 41.1687047,27.3065593 42.3492149,27.2880383 C42.7765941,27.2813122 42.9637363,27.4135915 42.9628628,27.8700867 C42.9532533,32.8734997 42.9512149,37.8769127 42.9649011,42.8802282 C42.9663571,43.4103202 42.693409,43.4376144 42.2904903,43.4373219 C34.3805287,43.4312782 26.470567,43.4329354 18.5606054,43.4331303 C17.6843955,43.4331303 17.6518786,43.4652984 17.6517815,44.3262349 C17.6516844,47.1202815 17.6528492,49.9144257 17.6508108,52.7084723 C17.6502284,53.4537984 17.5577251,53.5043901 16.909716,53.1331893 C11.4492984,50.0054712 5.99140451,46.8733667 0.523804063,43.7584184 C0.132436117,43.5354835 -0.000349435666,43.286814 3.88261851e-05,42.8395794 C0.0118808126,28.8366905 0.009648307,14.8336067 0.00974537246,0.830717848 C0.00974537246,0.104595195 0.0173164786,0.0975766916 0.746763431,0.0975766916 C7.66995756,0.0975766916 14.5932488,0.0975766916 21.5164429,0.0976741708" id="Fill-4"></path>
                    <path d="M22.6979625,29.0934995 C19.7219354,29.0934995 16.7460054,29.0939869 13.7699783,29.0930121 C13.1343937,29.0928172 13.1097391,29.0670826 13.1086713,28.4362947 C13.1075065,27.6404744 13.1312876,26.8435818 13.0996442,26.0489313 C13.0803282,25.5640697 13.2752357,25.4320828 13.7275607,25.4399786 C14.9564095,25.4611316 16.1862289,25.4312055 17.4149806,25.4529434 C17.8879806,25.4613266 18.0454208,25.2599345 18.0441589,24.8160142 C18.0370731,22.3634372 18.0439648,19.9106653 18.0385291,17.4579908 C18.0372673,16.9253644 17.9194298,16.8236936 17.3614005,16.8223289 C16.1321634,16.819307 14.9027323,16.8092666 13.6737865,16.8280801 C13.2615494,16.8343188 13.0861521,16.7076933 13.1013914,16.2724486 C13.1269196,15.5423293 13.1234253,14.8103579 13.1025562,14.0800437 C13.0913937,13.6886646 13.2144727,13.5292861 13.6264185,13.5302609 C17.7992628,13.5407887 21.9722041,13.5396189 26.1450483,13.5317231 C26.5080731,13.5310407 26.6795878,13.6312494 26.6688135,14.0275024 C26.6480415,14.7903747 26.6496916,15.5545142 26.6685223,16.317484 C26.6779377,16.6996025 26.5325336,16.8313944 26.1559196,16.8267154 C24.9106668,16.8112162 23.6651228,16.819112 22.4197729,16.8222314 C21.8465043,16.8236936 21.7398293,16.9223425 21.7386646,17.5039035 C21.7336172,19.9241174 21.7337142,22.3443313 21.7389558,24.7645452 C21.7402176,25.3666743 21.8229174,25.4432929 22.4062808,25.4441702 C24.3794275,25.4469971 26.3526713,25.4476795 28.3259151,25.4462173 C28.9348068,25.4458274 29.006247,25.3708659 29.0085765,24.7306224 C29.012265,23.7235647 29.0239129,22.7162145 29.0036262,21.7095467 C28.9951815,21.2872667 29.1430122,21.1300327 29.5674795,21.1448496 C30.2944998,21.1703891 31.0231702,21.1622009 31.7506758,21.1479689 C32.1298135,21.1405605 32.2718203,21.3122214 32.2711409,21.6756239 C32.26687,23.9658005 32.2644433,26.2561721 32.2730822,28.5463487 C32.2748293,28.9791564 32.0753598,29.1000306 31.6744795,29.0987634 C28.6823395,29.0890155 25.6901995,29.0934995 22.6979625,29.0934995" id="Fill-6"></path>
                </g>
            </g>
        </g>
    </g>
</svg>